<svg width="60" height="46" viewBox="0 0 60 46" fill="none" xmlns="http://www.w3.org/2000/svg">
<path d="M59.4285 10.0625C59.4285 10.0625 58.8571 5.4625 57.1429 3.45C54.8571 0.862502 52.2857 0.862498 51.1428 0.862498C42.5714 0.287498 30 0 30 0C30 0 26.8571 -4.39119e-06 22.5714 0.287496C18.2857 0.287496 13.1429 0.574998 8.85716 0.862498C7.7143 0.862498 5.14286 1.15 2.85714 3.45C1.14286 5.4625 0.571463 10.0625 0.571463 10.0625C0.571463 10.0625 0 15.525 0 20.7V25.5875C0 30.7625 0.571463 36.225 0.571463 36.225C0.571463 36.225 1.14286 40.825 2.85714 42.8375C5.14286 45.425 8.28568 45.425 9.42854 45.7125C14.2857 46 30 46 30 46C30 46 42.5714 46 51.1428 45.1375C52.2857 45.1375 54.8571 44.85 57.1429 42.55C58.8571 40.5375 59.4285 35.9375 59.4285 35.9375C59.4285 35.9375 60 30.7625 60 25.3V20.4125C60 15.2375 59.4285 10.0625 59.4285 10.0625ZM22.8571 35.075V12.3625L42.5714 23.8625L22.8571 35.075Z" fill="#DD4B39"/>
</svg>
