<?xml version="1.0" encoding="utf-8"?>
<!-- Generator: Adobe Illustrator 21.0.0, SVG Export Plug-In . SVG Version: 6.00 Build 0)  -->
<svg version="1.1" id="Слой_1" xmlns="http://www.w3.org/2000/svg" xmlns:xlink="http://www.w3.org/1999/xlink" x="0px" y="0px"
	 viewBox="0 0 512 512" style="enable-background:new 0 0 512 512;" xml:space="preserve">
<path d="M361.6,93.5L276.3,8.2c-2.6-2.6-5.8-4.7-9.3-6.2c-7-2.9-14.8-2.9-21.7,0c-3.5,1.4-6.7,3.5-9.3,6.2l-85.3,85.3
	c-11.1,11.1-11.1,29.1,0,40.2s29.1,11.1,40.2,0L227.7,97v386.5c0,15.7,12.7,28.4,28.4,28.4s28.4-12.7,28.4-28.4V97l36.8,36.8
	c5.6,5.6,12.8,8.3,20.1,8.3s14.6-2.8,20.1-8.3C372.7,122.7,372.7,104.7,361.6,93.5z"/>
</svg>
