<?xml version="1.0" encoding="utf-8"?>
<!-- Generator: Adobe Illustrator 21.0.0, SVG Export Plug-In . SVG Version: 6.00 Build 0)  -->
<svg version="1.1" id="Слой_1" xmlns="http://www.w3.org/2000/svg" xmlns:xlink="http://www.w3.org/1999/xlink" x="0px" y="0px"
	 viewBox="0 0 512 512" style="enable-background:new 0 0 512 512;" xml:space="preserve">
<path d="M493.7,475.7H18.3c-10,0-17.8,8.4-17.8,18.2c0,9.7,8.3,18.2,17.8,18.2h475.9c10,0,17.8-8.4,17.8-18.2
	C512,484.1,503.7,475.7,493.7,475.7z M0.4,314.9L0,401.3c0,4.9,1.7,9.7,5.2,13.3s7.8,5.3,12.6,5.3l84.3-0.4c4.8,0,9.1-1.8,12.6-5.3
	l291.2-296.7c7-7.1,7-18.6,0-26.1L322.5,5.3c-7-7.1-18.3-7.1-25.6,0l-58.2,59.8l-233,237C2.6,305.6,0.4,310,0.4,314.9z M309.9,44.3
	l58.7,59.8l-33,33.7L276.9,78C276.9,78,309.9,44.3,309.9,44.3z M36.5,322.9l214.7-218.8l58.7,59.8L95.2,382.2l-59.1,0.4
	C36.1,382.7,36.5,322.9,36.5,322.9z"/>
</svg>
