<?xml version="1.0" encoding="utf-8"?>
<!-- Generator: Adobe Illustrator 21.0.0, SVG Export Plug-In . SVG Version: 6.00 Build 0)  -->
<svg version="1.1" id="Слой_1" xmlns="http://www.w3.org/2000/svg" xmlns:xlink="http://www.w3.org/1999/xlink" x="0px" y="0px"
	 viewBox="0 0 512 512" style="enable-background:new 0 0 512 512;" xml:space="preserve">
<path d="M493.7,420H17.8C7.8,420,0,428.4,0,438.1s8.3,18.2,17.8,18.2h476.3c10,0,17.8-8.4,17.8-18.2S503.7,420,493.7,420z
	 M446.9,61.4c-7.7-7.7-20.1-7.7-27.8,0L183.5,297l-90.6-90.6c-7.7-7.7-20.1-7.7-27.8,0c-7.7,7.7-7.7,20.1,0,27.8l104.5,104.5
	c7.7,7.7,20.1,7.7,27.8,0L446.9,89.3C454.6,81.6,454.6,69.1,446.9,61.4z"/>
</svg>
