<?xml version="1.0" encoding="utf-8"?>
<!-- Generator: Adobe Illustrator 21.0.0, SVG Export Plug-In . SVG Version: 6.00 Build 0)  -->
<svg version="1.1" id="Capa_1" xmlns="http://www.w3.org/2000/svg" xmlns:xlink="http://www.w3.org/1999/xlink" x="0px" y="0px"
	 viewBox="0 0 512 512" style="enable-background:new 0 0 512 512;" xml:space="preserve">
<style type="text/css">
	.st0{fill:#293688;}
	.st1{fill:#F7981D;}
</style>
<g>
	<g>
		<polygon class="st0" points="183.4,332.3 209.2,179.7 251.1,179.7 225.2,332.3 		"/>
		<path class="st0" d="M374.2,183.6c-8.3-3.1-21.3-6.4-37.5-6.4c-41.4,0-70.5,20.7-70.7,50.4c-0.2,21.9,20.8,34.2,36.7,41.5
			c16.3,7.5,21.8,12.3,21.7,18.9c-0.1,10.2-13,14.9-25,14.9c-16.7,0-25.6-2.3-39.4-8l-5.4-2.4l-5.9,34.2c9.8,4.3,27.9,8,46.6,8.1
			c44,0,72.5-20.5,72.9-52.1c0.2-17.4-11-30.6-35.1-41.5c-14.6-7.1-23.6-11.8-23.5-18.9c0-6.3,7.6-13.1,24-13.1
			c13.7-0.2,23.6,2.8,31.3,5.8l3.7,1.8L374.2,183.6L374.2,183.6z"/>
		<path class="st0" d="M445.5,179.7c-10,0-17.3,3.1-21.7,13l-62,139.6h44.3l8.6-23.4h52.9l4.9,23.4H512l-34.5-152.6L445.5,179.7
			L445.5,179.7L445.5,179.7z M426.5,278.4c3.5-8.8,16.7-42.7,16.7-42.7c-0.2,0.4,3.4-8.8,5.6-14.6l2.8,13.2c0,0,8,36.4,9.7,44.1
			L426.5,278.4L426.5,278.4z"/>
		<path class="st0" d="M107.1,284.3l-3.7-20.9c-7.6-24.4-31.3-50.8-57.9-64l37,132.9h44.3l66.5-152.6h-44.3L107.1,284.3z"/>
	</g>
	<path class="st1" d="M0,179.7v2.5c52.5,12.6,89,44.6,103.4,81.2l-15.2-70.7c-2.5-9.7-10.2-12.7-19.3-13L0,179.7L0,179.7z"/>
</g>
</svg>
